# xmcd CD database file
#
# Track frame offsets:
#	150
#	14297
#	28615
#	42940
#	57213
#	71507
#	85930
#	100393
#	114954
#	129736
#	144601
#	159486
#	174402
#	189705
#	204951
#	220220
#	235513
#
# Disc length: 3349 seconds
#
# Revision: 1
# Processed by: cddbd v1.5PL3 Copyright (c) Steve Scherf et al.
# Submitted via: CDex 1.51
#
DISCID=e50d1311
DTITLE=Lionel Hampton - The Legends Of Jazz
DYEAR=1900
DGENRE=Jazz
TTITLE0=Buzzin' Around Wiht The Bee (John Hancock)
TTITLE1=I Just Couldn't Take It Baby (M. Holiner/A. Nichols)
TTITLE2=Drum Stomp - Crazy Rhythm (Fisher)
TTITLE3=You're Driving Me Crazy (W. Donaldson)
TTITLE4=Hampton Stomp (L. Hamton)
TTITLE5=The Ramble (C. Lawrence)
TTITLE6=The Sun Will Shine Tonight (B. Rose/T. Fetter/N. Lehac)
TTITLE7=The Objekt Of My Affection (E. Tomlin/C. Poe)
TTITLE8=You're My Ideal (T. Waller/S.P. Williams)
TTITLE9=Down Home Jump (Lionel Hampton)
TTITLE10=Any Time At All (J. Dorsey/J. Van Heusen)
TTITLE11=Muskrat Ramble (Edward Ory)
TTITLE12=Ring Dem Bells (E. Ellington/I. Mills)
TTITLE13=Vibraphome Blues (L. Hampton)
TTITLE14=Fiddle Diddle (L. Hampton)
TTITLE15=I Surrender Dear (G. Clifford/H. Barris)
TTITLE16=Confessin (Reynolds/Daugherty/Neiburg)
EXTD=
EXTT0=
EXTT1=
EXTT2=
EXTT3=
EXTT4=
EXTT5=
EXTT6=
EXTT7=
EXTT8=
EXTT9=
EXTT10=
EXTT11=
EXTT12=
EXTT13=
EXTT14=
EXTT15=
EXTT16=
PLAYORDER=
